<svg width="26" height="26" viewBox="0 0 26 26" fill="none" xmlns="http://www.w3.org/2000/svg">
<g id="bi:upload">
<g id="Group">
<path id="Vector" d="M0.8125 16.0875C1.02799 16.0875 1.23465 16.1731 1.38702 16.3255C1.5394 16.4778 1.625 16.6845 1.625 16.9V20.9625C1.625 21.3935 1.7962 21.8068 2.10095 22.1115C2.4057 22.4163 2.81902 22.5875 3.25 22.5875H22.75C23.181 22.5875 23.5943 22.4163 23.899 22.1115C24.2038 21.8068 24.375 21.3935 24.375 20.9625V16.9C24.375 16.6845 24.4606 16.4778 24.613 16.3255C24.7653 16.1731 24.972 16.0875 25.1875 16.0875C25.403 16.0875 25.6097 16.1731 25.762 16.3255C25.9144 16.4778 26 16.6845 26 16.9V20.9625C26 21.8244 25.6576 22.6511 25.0481 23.2606C24.4386 23.8701 23.612 24.2125 22.75 24.2125H3.25C2.38805 24.2125 1.5614 23.8701 0.951903 23.2606C0.34241 22.6511 0 21.8244 0 20.9625V16.9C0 16.6845 0.0856024 16.4778 0.237976 16.3255C0.390349 16.1731 0.597012 16.0875 0.8125 16.0875V16.0875Z" fill="white"/>
<path id="Vector_2" d="M12.4248 1.86224C12.5003 1.78657 12.5899 1.72654 12.6886 1.68558C12.7874 1.64462 12.8932 1.62354 13.0001 1.62354C13.1069 1.62354 13.2127 1.64462 13.3115 1.68558C13.4102 1.72654 13.4998 1.78657 13.5753 1.86224L18.4503 6.73724C18.6029 6.8898 18.6886 7.09673 18.6886 7.31249C18.6886 7.52825 18.6029 7.73517 18.4503 7.88774C18.2977 8.0403 18.0908 8.12601 17.8751 8.12601C17.6593 8.12601 17.4524 8.0403 17.2998 7.88774L13.8126 4.39886V18.6875C13.8126 18.903 13.7269 19.1096 13.5746 19.262C13.4222 19.4144 13.2155 19.5 13.0001 19.5C12.7846 19.5 12.5779 19.4144 12.4255 19.262C12.2732 19.1096 12.1876 18.903 12.1876 18.6875V4.39886L8.7003 7.88774C8.62476 7.96328 8.53508 8.0232 8.43637 8.06409C8.33767 8.10497 8.23188 8.12601 8.12505 8.12601C8.01822 8.12601 7.91243 8.10497 7.81373 8.06409C7.71503 8.0232 7.62534 7.96328 7.5498 7.88774C7.47426 7.81219 7.41433 7.72251 7.37345 7.62381C7.33257 7.52511 7.31152 7.41932 7.31152 7.31249C7.31152 7.20565 7.33257 7.09987 7.37345 7.00116C7.41433 6.90246 7.47426 6.81278 7.5498 6.73724L12.4248 1.86224Z" fill="white"/>
</g>
</g>
</svg>
