<svg width="25" height="24" viewBox="0 0 25 24" fill="none" xmlns="http://www.w3.org/2000/svg">
<g id="icon">
<g id="Group 1">
<path id="Vector" d="M20.0194 4.88129L19.2834 4.14535C19.0755 3.93736 18.6915 3.96937 18.4515 4.25731L15.8913 6.80128C14.7392 6.30533 13.4753 6.06533 12.1473 6.06533C8.19515 6.08127 4.77138 8.38524 3.12326 11.6974C3.02723 11.9054 3.02723 12.1614 3.12326 12.3374C3.89119 13.9054 5.04326 15.2014 6.48327 16.1774L4.38727 18.3053C4.14727 18.5453 4.11526 18.9293 4.27531 19.1373L5.01125 19.8733C5.21925 20.0812 5.60323 20.0492 5.84323 19.7613L19.8911 5.7134C20.1952 5.47354 20.2272 5.08958 20.0192 4.88156L20.0194 4.88129ZM12.9953 9.71318C12.7233 9.64916 12.4353 9.5692 12.1633 9.5692C10.8032 9.5692 9.71535 10.6572 9.71535 12.0171C9.71535 12.2891 9.77937 12.5771 9.85932 12.8491L8.78721 13.9051C8.46725 13.3452 8.29126 12.7211 8.29126 12.0172C8.29126 9.88919 10.0033 8.17717 12.1313 8.17717C12.8353 8.17717 13.4593 8.35315 14.0193 8.67311L12.9953 9.71318Z" fill="#666666" fill-opacity="0.8"/>
<path id="Vector_2" d="M21.1714 11.6974C20.6114 10.5773 19.8754 9.56941 18.9635 8.75338L15.9874 11.6974V12.0173C15.9874 14.1453 14.2754 15.8573 12.1474 15.8573H11.8275L9.93947 17.7453C10.6435 17.8893 11.3795 17.9853 12.0995 17.9853C16.0516 17.9853 19.4754 15.6814 21.1235 12.3532C21.2675 12.1291 21.2675 11.9052 21.1714 11.6972L21.1714 11.6974Z" fill="#666666" fill-opacity="0.8"/>
</g>
</g>
</svg>
